<svg width="105" height="104" viewBox="0 0 105 104" fill="none" xmlns="http://www.w3.org/2000/svg">
<path fill-rule="evenodd" clip-rule="evenodd" d="M52.5391 8C28.2385 8 8.53906 27.6995 8.53906 52C8.53906 76.3005 28.2385 96 52.5391 96C76.8396 96 96.5391 76.3005 96.5391 52C96.5391 27.6995 76.8396 8 52.5391 8ZM0.539062 52C0.539062 23.2812 23.8203 0 52.5391 0C81.2579 0 104.539 23.2812 104.539 52C104.539 80.7188 81.2579 104 52.5391 104C23.8203 104 0.539062 80.7188 0.539062 52ZM52.5391 20C54.7482 20 56.5391 21.7909 56.5391 24V48H80.5391C82.7482 48 84.5391 49.7909 84.5391 52C84.5391 54.2091 82.7482 56 80.5391 56H52.5391C50.3299 56 48.5391 54.2091 48.5391 52V24C48.5391 21.7909 50.3299 20 52.5391 20Z" fill="white"/>
</svg>
