<!-- {"tag":"svg","attr":{"viewBox":"0 0 24 24"},"child":[{"tag":"path","attr":{"d":"M5 20a2 2 0 0 0 2 2h10a2 2 0 0 0 2-2V8h2V6h-4V4a2 2 0 0 0-2-2H9a2 2 0 0 0-2 2v2H3v2h2zM9 4h6v2H9zM88h9v12H7V8z"}},{"tag":"path","attr":{"d":"M9 10h2v8H9zm4 0h2v8h-2z"}}]} -->

<svg width="24" height="24" viewBox="0 0 24 24" fill="none" xmlns="http://www.w3.org/2000/svg">
    <path fill-rule="evenodd" clip-rule="evenodd" d="M5 20a2 2 0 0 0 2 2h10a2 2 0 0 0 2-2V8h2V6h-4V4a2 2 0 0 0-2-2H9a2 2 0 0 0-2 2v2H3v2h2zM9 4h6v2H9zM8 8h9v12H7V8z" fill="white"/>
    <path fill-rule="evenodd" clip-rule="evenodd" d="M9 10h2v8H9zm4 0h2v8h-2z" fill="white"/>
</svg>